<svg xmlns="http://www.w3.org/2000/svg" width="88" height="89" viewBox="0 0 88 89" fill="none"><g clip-path="url(#clip0_1132_6818)"><path d="M26.4744 5.24514C26.3921 5.43737 26.2547 5.5884 26.0625 5.68452C16.4098 10.2019 8.87168 18.1245 4.83486 27.9832C2.34961 34.0384 1.3198 40.3957 1.75919 46.8766C1.78665 47.3297 1.44338 47.7279 0.990267 47.7691C0.537154 47.7966 0.138964 47.4533 0.0977721 47.0002C-0.369071 40.2584 0.715653 33.6539 3.28329 27.3653C7.49862 17.0947 15.3251 8.87004 25.3485 4.17414C25.7604 3.98191 26.2685 4.16041 26.4607 4.57233C26.5568 4.79202 26.5568 5.03917 26.4744 5.24514Z" fill="#ABADB0"></path><path d="M4.51794 59.8933C4.43555 60.0992 4.27079 60.264 4.05109 60.3601C3.62544 60.5249 3.14487 60.3189 2.96637 59.8795C2.14253 57.7513 1.48345 55.5681 1.00288 53.3712C0.906766 52.9181 1.19511 52.4787 1.63449 52.3826C2.08761 52.2865 2.52699 52.5748 2.6231 53.0142C3.07621 55.1287 3.72156 57.2295 4.50421 59.2754C4.58659 59.4813 4.57286 59.701 4.50421 59.8933H4.51794Z" fill="#ABADB0"></path><path d="M72.2927 77.5784C72.2377 77.702 72.1554 77.8118 72.0455 77.908C59.5094 88.2746 42.3735 90.8835 27.3246 84.7184C22.7661 82.851 18.5919 80.2696 14.9121 77.0292C14.5688 76.7271 14.5276 76.1916 14.8434 75.8483C15.1455 75.5051 15.681 75.4639 16.0243 75.7797C19.5531 78.8828 23.5762 81.3681 27.97 83.1668C42.4421 89.0985 58.9327 86.5857 71.002 76.6035C71.359 76.3152 71.8807 76.3564 72.1828 76.7134C72.3888 76.9605 72.43 77.2901 72.3064 77.5647L72.2927 77.5784Z" fill="#ABADB0"></path><path d="M84.703 60.6897C83.5771 63.4495 82.1628 66.0996 80.5151 68.5574C80.2542 68.9418 79.7462 69.0379 79.3617 68.7908C78.9773 68.5299 78.8812 68.0219 79.1283 67.6374C80.7074 65.2757 82.0667 62.7218 83.1514 60.0718C85.8701 53.4261 86.8724 46.1763 86.0211 39.0913C85.9662 38.6382 86.2958 38.2125 86.7489 38.1713C87.202 38.1164 87.6276 38.4459 87.6688 38.8991C88.5476 46.2587 87.504 53.8106 84.6755 60.7171L84.703 60.6897Z" fill="#ABADB0"></path><path d="M83.7833 25.8961C83.7009 26.0883 83.5636 26.2394 83.3714 26.3355C82.9595 26.5277 82.4514 26.3492 82.2592 25.9373C77.7418 16.3533 69.8467 8.87004 60.0292 4.84695C59.6036 4.66845 59.3976 4.18787 59.5761 3.76222C59.7546 3.33657 60.2352 3.13061 60.6608 3.30911C70.8627 7.48324 79.06 15.2685 83.7696 25.2233C83.8794 25.443 83.8794 25.6901 83.7833 25.8961Z" fill="#ABADB0"></path><path d="M55.3502 7.5656C55.2816 7.96379 55.515 8.36198 55.9132 8.48556C63.0257 10.8884 69.3693 15.4333 74.1338 21.8455C77.4978 26.3904 79.7771 31.6904 80.7383 37.2651C83.0862 50.8447 78.1706 64.1223 67.6117 72.855C62.3666 77.1939 55.9681 80.0087 49.2401 80.9424C36.1273 82.7549 23.4264 77.8256 14.982 67.6236C10.698 62.4472 7.89696 56.1448 6.93581 49.4854C5.24694 37.8006 8.91303 26.4316 16.9043 18.0833C21.3668 13.4149 26.8316 10.0646 32.8319 8.21094C33.285 8.07364 33.5322 7.59306 33.3811 7.13995C33.2301 6.7143 32.777 6.48088 32.3513 6.61818C24.6896 8.97986 17.8792 13.6895 12.7851 20.3626C8.39126 26.1158 5.68632 33.0498 5.04097 40.2721C3.81894 53.9753 9.55837 66.9234 20.5429 75.2305C26.2274 79.5282 33.0379 82.1644 40.1366 82.8235C53.9085 84.1005 66.9115 78.361 75.246 67.3353C79.4751 61.7332 82.1113 55.0189 82.8116 48.0299C84.0336 35.7547 79.681 24.0562 70.9483 15.7079C66.7467 11.6985 61.8174 8.74644 56.4761 6.93399C55.9956 6.76922 55.4738 7.08503 55.3914 7.59306L55.3502 7.5656Z" fill="#ABADB0"></path><path d="M59.096 30.3448C58.9038 30.3448 58.7115 30.2762 58.5605 30.1251L43.9922 15.5569L29.424 30.1251C29.1356 30.4135 28.6551 30.4135 28.353 30.1251C28.0646 29.8368 28.0646 29.3562 28.353 29.0542L43.4567 13.9504C43.7451 13.662 44.2257 13.662 44.5277 13.9504L59.6315 29.0542C59.9198 29.3425 59.9198 29.8231 59.6315 30.1251C59.4805 30.2762 59.2882 30.3448 59.096 30.3448Z" fill="#ABADB0"></path><path d="M43.9935 15.2411C43.5816 15.2411 43.2383 14.8978 43.2383 14.4859V0.755188C43.2383 0.343267 43.5816 0 43.9935 0C44.4054 0 44.7487 0.343267 44.7487 0.755188V14.4859C44.7487 14.8978 44.4054 15.2411 43.9935 15.2411Z" fill="#ABADB0"></path><path d="M49.4858 7.00266H38.5013C38.0894 7.00266 37.7461 6.65939 37.7461 6.24747C37.7461 5.83555 38.0894 5.49228 38.5013 5.49228H49.4858C49.8978 5.49228 50.241 5.83555 50.241 6.24747C50.241 6.65939 49.8978 7.00266 49.4858 7.00266Z" fill="#ABADB0"></path><path d="M17.9041 52.3139C17.7119 52.3139 17.5196 52.2453 17.3686 52.0942C17.0803 51.8059 17.0803 51.3253 17.3686 51.0232L32.2527 36.1392V25.4704C32.2527 25.0585 32.5959 24.7152 33.0079 24.7152C33.4198 24.7152 33.7631 25.0585 33.7631 25.4704V36.455C33.7631 36.6609 33.6807 36.8532 33.5434 36.9905L18.4396 52.0942C18.2886 52.2453 18.0963 52.3139 17.9041 52.3139Z" fill="#ABADB0"></path><path d="M70.0816 52.3139C69.8894 52.3139 69.6971 52.2453 69.5461 52.0942L54.4423 36.9905C54.305 36.8532 54.2227 36.6609 54.2227 36.455V25.4704C54.2227 25.0585 54.5659 24.7152 54.9778 24.7152C55.3898 24.7152 55.733 25.0585 55.733 25.4704V36.1392L70.6171 51.0232C70.9054 51.3116 70.9054 51.7922 70.6171 52.0942C70.4661 52.2453 70.2738 52.3139 70.0816 52.3139Z" fill="#ABADB0"></path><path d="M43.9916 35.8371C41.3004 35.8371 39.1172 33.6539 39.1172 30.9627C39.1172 28.2715 41.3004 26.0883 43.9916 26.0883C46.6828 26.0883 48.866 28.2715 48.866 30.9627C48.866 33.6539 46.6828 35.8371 43.9916 35.8371ZM43.9916 27.5987C42.1379 27.5987 40.6276 29.1091 40.6276 30.9627C40.6276 32.8164 42.1379 34.3267 43.9916 34.3267C45.8452 34.3267 47.3556 32.8164 47.3556 30.9627C47.3556 29.1091 45.8452 27.5987 43.9916 27.5987Z" fill="#ABADB0"></path><path d="M65.9629 64.6716H48.113C47.7011 64.6716 47.3579 64.3283 47.3579 63.9164V50.9409H40.6298V63.9164C40.6298 64.3283 40.2865 64.6716 39.8746 64.6716H22.0247C21.6128 64.6716 21.2695 64.3283 21.2695 63.9164V47.4395C21.2695 47.0276 21.6128 46.6844 22.0247 46.6844C22.4366 46.6844 22.7799 47.0276 22.7799 47.4395V63.1612H39.1194V50.1857C39.1194 49.7738 39.4627 49.4305 39.8746 49.4305H48.113C48.525 49.4305 48.8682 49.7738 48.8682 50.1857V63.1612H65.2077V47.4395C65.2077 47.0276 65.551 46.6844 65.9629 46.6844C66.3749 46.6844 66.7181 47.0276 66.7181 47.4395V63.9164C66.7181 64.3283 66.3749 64.6716 65.9629 64.6716Z" fill="#ABADB0"></path></g><defs><clipPath id="clip0_1132_6818"><rect width="88" height="88.0137" fill="white"></rect></clipPath></defs></svg>