<svg xmlns="http://www.w3.org/2000/svg" width="88" height="92" viewBox="0 0 88 92" fill="none"><g clip-path="url(#clip0_1132_6809)"><path d="M85.5497 56.2605C85.4395 56.0814 85.3982 55.8747 85.4533 55.6681C87.6161 45.2398 85.7839 34.4671 80.2873 25.3199C76.926 19.7132 72.4489 15.0707 66.9936 11.5579C66.6079 11.3099 66.4977 10.7864 66.7457 10.4007C66.9936 10.015 67.5171 9.90479 67.9029 10.1528C73.5785 13.8171 78.221 18.6249 81.7338 24.4658C87.437 33.9574 89.338 45.1709 87.0926 56.0125C86.9962 56.4671 86.5553 56.7564 86.1007 56.66C85.8665 56.6048 85.6737 56.4671 85.5497 56.2742V56.2605Z" fill="#ABADB0"></path><path d="M54.8976 5.96489C54.7874 5.77203 54.746 5.53784 54.8149 5.31743C54.9389 4.8766 55.3935 4.61486 55.8481 4.73885C58.0385 5.35876 60.1875 6.1302 62.2401 7.06696C62.6534 7.25982 62.8462 7.75575 62.6534 8.16903C62.4605 8.5823 61.9646 8.77516 61.5513 8.5823C59.5814 7.68687 57.515 6.9292 55.4073 6.33684C55.1869 6.28174 55.0216 6.14398 54.9114 5.96489H54.8976Z" fill="#ABADB0"></path><path d="M0.16418 49.6894C0.0953006 49.5792 0.0539732 49.4414 0.0401973 49.3036C-0.745025 33.0482 7.42404 17.757 21.3514 9.38129C25.5806 6.84654 30.1542 5.0419 34.9344 4.03627C35.389 3.93984 35.8298 4.22913 35.9262 4.68373C36.0227 5.13833 35.7334 5.57916 35.2788 5.67559C30.6776 6.6399 26.2832 8.37565 22.2055 10.814C8.80163 18.8591 0.949402 33.5854 1.72085 49.221C1.7484 49.6756 1.39023 50.0751 0.92185 50.0889C0.605006 50.1026 0.315714 49.9373 0.16418 49.6894Z" fill="#ABADB0"></path><path d="M6.28339 69.747C4.7405 67.1847 3.47312 64.4708 2.48126 61.6881C2.32973 61.2473 2.55014 60.7789 2.99097 60.6274C3.4318 60.4758 3.90017 60.6963 4.05171 61.1371C5.00224 63.8234 6.22829 66.427 7.7023 68.8929C11.3942 75.0507 16.6153 80.1891 22.8006 83.757C23.2001 83.9912 23.3379 84.5009 23.1037 84.9004C22.8695 85.2999 22.3598 85.4377 21.9603 85.2035C15.5407 81.4978 10.1131 76.1527 6.26962 69.747H6.28339Z" fill="#ABADB0"></path><path d="M34.7028 89.8321C34.5926 89.653 34.5512 89.4464 34.6063 89.2398C34.7028 88.7852 35.1436 88.4959 35.5844 88.5923C45.9714 90.7 56.689 88.854 65.781 83.3988C66.1805 83.1646 66.6902 83.2886 66.9244 83.6881C67.1586 84.0876 67.0346 84.5973 66.6351 84.8315C57.1849 90.5071 46.0403 92.422 35.24 90.2316C35.0058 90.1765 34.813 90.0388 34.689 89.8459L34.7028 89.8321Z" fill="#ABADB0"></path><path d="M58.8349 76.2492C58.4216 76.2492 58.0497 75.9874 57.9119 75.5742C57.7466 75.0644 58.0221 74.5134 58.5456 74.3619C66.4805 71.8134 72.4041 60.8065 72.4041 52.665C72.4041 44.5234 67.8994 36.3681 58.2287 27.4965C49.5638 19.5479 45.6239 13.4038 45.803 8.15525C45.8581 6.54348 46.3264 5.02813 47.1805 3.60922C39.7416 7.30115 33.0465 13.6794 34.617 21.8346C35.5951 26.973 37.4686 29.3011 38.9701 31.1609C40.4579 33.0068 41.7391 34.6048 41.5049 37.7871C41.3258 40.2943 39.8931 42.2229 37.4823 43.2147C33.8731 44.6887 28.9551 43.8071 26.9576 42.0438C24.2989 39.6881 23.2657 36.6299 23.982 33.5303C18.5544 37.5115 14.5731 45.8459 14.5731 53.8497C14.5731 59.6493 18.0171 65.3525 25.0979 71.2761C25.5112 71.6205 25.5663 72.2266 25.2219 72.6399C24.8775 73.0532 24.2576 73.1083 23.8581 72.7639C16.3089 66.4408 12.6445 60.2554 12.6445 53.8497C12.6445 44.0275 18.2926 33.7094 25.5112 30.3757C25.8969 30.1966 26.3515 30.293 26.627 30.5961C26.9163 30.8991 26.9714 31.3675 26.751 31.7257C24.2713 36.0926 26.6132 39.1509 28.2388 40.5835C29.575 41.7683 33.7353 42.6499 36.7522 41.4101C38.5018 40.6938 39.4523 39.4264 39.5763 37.6493C39.7554 35.211 38.8324 34.0814 37.4548 32.3732C35.8155 30.3343 33.7767 27.7996 32.7021 22.1928C30.6495 11.3788 41.0227 3.51279 50.5418 0.0688357C50.9827 -0.0964743 51.4786 0.0963873 51.7128 0.509662C51.947 0.922937 51.8368 1.44642 51.4648 1.73571C49.0403 3.6781 47.8142 5.7858 47.7316 8.21035C47.5663 12.7839 51.4373 18.6249 59.5237 26.05C69.6214 35.3212 74.3189 43.7658 74.3189 52.6512C74.3189 61.5366 68.0785 73.3149 59.1104 76.1803C59.014 76.2078 58.9175 76.2216 58.8211 76.2216L58.8349 76.2492Z" fill="#ABADB0"></path><path d="M53.1871 74.6374C52.9667 74.6374 52.76 74.5685 52.581 74.417C52.1677 74.0864 52.0988 73.4665 52.4294 73.0532C57.6918 66.4959 56.4382 62.129 54.9917 57.0732C54.2065 54.3043 53.3937 51.4665 53.6555 48.1878C49.7294 51.0532 48.5033 54.4696 47.6079 57.7482C46.2854 62.5836 41.9322 66.4132 37.6893 66.4546H37.5929C33.7356 66.4546 31.6279 63.8234 30.3605 61.0544C28.8176 66.9092 31.5177 70.1465 34.4933 72.943C34.879 73.3149 34.9066 73.9211 34.5346 74.3068C34.1627 74.6925 33.5565 74.7063 33.1708 74.3481C29.2034 70.6011 26.0074 66.0137 29.4238 57.8171C29.5753 57.4452 29.9748 57.211 30.3605 57.2248C30.76 57.2385 31.1182 57.5141 31.2422 57.8998C32.73 62.556 34.6862 64.5535 37.6617 64.4984C41.023 64.4571 44.6461 61.1922 45.7344 57.211C46.8089 53.2711 48.462 48.7664 54.4545 45.3362C54.7851 45.1434 55.1984 45.1709 55.5152 45.3913C55.8183 45.6255 55.9698 46.0112 55.8872 46.3832C55.0331 50.144 55.9147 53.2298 56.8515 56.4946C58.3117 61.6055 59.827 66.8954 53.9448 74.2241C53.7519 74.4583 53.4764 74.5823 53.1871 74.5823V74.6374Z" fill="#ABADB0"></path><path d="M77.501 27.0006C73.9468 21.077 69.0013 16.3105 63.1328 13.0319C63.1328 13.0319 61.9894 12.1778 61.4521 12.9768C60.9149 13.7758 62.2925 14.5059 62.2925 14.5059C67.9268 17.6468 72.6794 22.1928 76.0821 27.8685C81.2205 36.437 82.722 46.4934 80.2975 56.1778C77.8729 65.876 71.8253 74.045 63.2568 79.1834C54.6882 84.3218 44.6318 85.8234 34.9474 83.3988C25.263 80.9743 17.0802 74.9267 11.9418 66.3581C6.80342 57.7896 5.30186 47.7332 7.7264 38.0488C10.1509 28.3506 16.1985 20.1816 24.7671 15.0432C26.8059 13.8171 28.9412 12.8115 31.1178 11.9987C31.1178 11.9987 32.2474 11.5854 31.9581 10.7038C31.6688 9.82213 30.4703 10.4558 30.3463 10.4971C28.1284 11.3237 25.9794 12.3569 23.8992 13.6105C14.9587 18.9831 8.63561 27.5103 6.10085 37.6355C3.5661 47.7608 5.13655 58.2579 10.5091 67.2122C15.8817 76.1527 24.4089 82.4759 34.5342 85.0106C44.6594 87.5454 55.1566 85.9749 64.1109 80.6023C73.0652 75.2298 79.3745 66.7025 81.9092 56.5773C84.444 46.4521 82.8735 35.9549 77.501 27.0006Z" fill="#ABADB0"></path></g><defs><clipPath id="clip0_1132_6809"><rect width="88" height="91.0858" fill="white" transform="translate(0 0.0137329)"></rect></clipPath></defs></svg>