<svg xmlns="http://www.w3.org/2000/svg" width="88" height="89" viewBox="0 0 88 89" fill="none"><g clip-path="url(#clip0_1132_6796)"><path d="M43.9996 83.1833C33.5626 83.1833 23.7437 79.1184 16.3691 71.7438C8.99461 64.3693 4.92969 54.5503 4.92969 44.1134C4.92969 33.6764 8.99461 23.8574 16.3691 16.4829C23.7437 9.10838 33.5626 5.04346 43.9996 5.04346C54.4366 5.04346 64.2555 9.10838 71.6301 16.4829C79.0046 23.8574 83.0695 33.6764 83.0695 44.1134C83.0695 54.5503 79.0046 64.3693 71.6301 71.7438C64.2555 79.1184 54.4366 83.1833 43.9996 83.1833ZM43.9996 6.6914C34.0021 6.6914 24.6088 10.5778 17.5502 17.6502C10.4915 24.7089 6.59136 34.1021 6.59136 44.0996C6.59136 54.0971 10.4778 63.4904 17.5502 70.5491C24.6088 77.6078 34.0021 81.5079 43.9996 81.5079C53.9971 81.5079 63.3904 77.6215 70.449 70.5491C77.5077 63.4904 81.4078 54.0971 81.4078 44.0996C81.4078 34.1021 77.5214 24.7089 70.449 17.6502C63.3904 10.5915 53.9971 6.6914 43.9996 6.6914Z" fill="#ABADB0"></path><path d="M73.2526 13.187C73.0467 13.187 72.8544 13.1183 72.6896 12.9673C64.8619 5.7438 54.6721 1.77502 44.0154 1.77502C37.4649 1.77502 31.189 3.2307 25.3663 6.10086C24.9543 6.30685 24.4462 6.12832 24.2539 5.71634C24.0479 5.30435 24.2264 4.79624 24.6384 4.60398C30.6946 1.62395 37.2177 0.113342 44.0292 0.113342C55.1116 0.113342 65.6996 4.24692 73.8432 11.7451C74.1865 12.0609 74.2002 12.5828 73.8981 12.9261C73.7333 13.1046 73.5136 13.2007 73.2801 13.2007L73.2526 13.187Z" fill="#ABADB0"></path><path d="M14.3367 13.5715C14.117 13.5715 13.8973 13.4891 13.7325 13.3106C13.4166 12.981 13.4303 12.4454 13.7599 12.1296C15.4216 10.564 17.1931 9.12206 19.0471 7.84491C19.4316 7.58399 19.9397 7.68012 20.2144 8.06464C20.4753 8.44916 20.3792 8.95727 19.9946 9.23193C18.2094 10.4541 16.5065 11.8412 14.9135 13.3518C14.7487 13.5028 14.5427 13.5852 14.3367 13.5852V13.5715Z" fill="#ABADB0"></path><path d="M23.6479 83.0184C23.5106 83.0184 23.387 82.991 23.2497 82.9223C8.91261 75.2319 0 60.3593 0 44.0996C0 39.1695 0.810237 34.3218 2.40325 29.6938C2.55431 29.2544 3.03496 29.0209 3.46067 29.172C3.90012 29.3231 4.13358 29.8037 3.98252 30.2294C2.44444 34.6789 1.66167 39.3343 1.66167 44.0859C1.66167 59.7276 10.231 74.0372 24.0462 81.4254C24.4582 81.6452 24.6092 82.1533 24.3895 82.5515C24.2385 82.8262 23.9501 82.991 23.6479 82.991V83.0184Z" fill="#ABADB0"></path><path d="M44.0002 88.0996C41.0202 88.0996 38.0264 87.7975 35.1288 87.207C34.6756 87.1109 34.3872 86.6714 34.4833 86.2182C34.5795 85.7651 35.0189 85.4767 35.4721 85.5728C38.2599 86.1496 41.13 86.438 44.0002 86.438C51.1824 86.438 58.2823 84.6115 64.517 81.1508C64.9153 80.9311 65.4234 81.0684 65.6569 81.4804C65.8766 81.8787 65.7393 82.3868 65.3273 82.6202C58.8454 86.2182 51.4708 88.1271 44.0002 88.1271V88.0996Z" fill="#ABADB0"></path><path d="M75.8606 74.0646C75.6546 74.0646 75.4623 73.996 75.2975 73.8449C74.9542 73.5291 74.9405 73.0072 75.2426 72.6639C82.3974 64.8499 86.3387 54.7014 86.3387 44.0996C86.3387 43.6327 86.7095 43.2619 87.1764 43.2619C87.6434 43.2619 88.0141 43.6327 88.0141 44.0996C88.0141 55.1271 83.9218 65.6739 76.4786 73.79C76.3138 73.9685 76.094 74.0646 75.8606 74.0646Z" fill="#ABADB0"></path><path d="M50.9895 73.7076C50.7835 73.7076 50.5775 73.6938 50.3715 73.6527C48.4489 73.2681 47.3503 71.2219 46.54 69.7113C46.3203 69.2993 46.1143 68.9148 45.9358 68.6539C44.9196 67.1845 45.4414 65.0834 45.7985 63.6963C45.8946 63.3393 46.0044 62.8586 46.0044 62.6939C45.9495 62.4879 45.6062 61.8561 45.359 61.3892C44.5625 59.9336 43.6424 58.2856 43.9171 57.0359C44.0819 56.2669 43.8896 54.77 43.1206 54.0284C42.6262 53.5615 41.9533 53.4516 41.0469 53.6988C37.5313 54.6327 33.1368 52.2294 30.5138 50.8012C30.2117 50.6364 29.937 50.4854 29.7036 50.3618C28.8384 49.9086 28.3303 48.81 28.193 47.1208C27.932 43.8936 29.2229 37.9747 32.2304 35.75C34.5375 34.0334 37.545 33.5116 39.138 33.3468C41.4863 33.0996 43.6836 33.3468 44.7136 33.9373C48.0781 35.9011 48.6961 35.7912 49.726 35.599C50.4264 35.4754 51.2916 35.3106 52.8571 35.5166C54.2442 35.6951 55.2466 35.5166 55.535 35.0085C55.7822 34.5965 55.6174 33.8412 55.123 33.1408C54.1618 31.7675 50.7285 31.6439 47.1031 31.5066L46.4988 31.4791C44.535 31.4105 42.4202 31.6439 40.5525 31.8499C37.4352 32.1932 35.5538 32.3992 34.8122 31.3418C34.5787 30.9985 34.3865 30.4217 34.8259 29.5428C35.5126 28.1832 40.2504 25.011 42.4064 24.0909C43.3815 23.6789 43.3952 23.1845 43.3677 22.0172C43.354 21.4816 43.3265 20.8636 43.4776 20.2319C43.7385 19.1333 45.1255 18.3505 47.7348 17.8424C49.4377 17.5128 51.4701 17.3618 52.349 17.4991C52.3902 17.4991 52.4039 17.4991 52.4589 17.4304C52.7885 17.0047 52.8846 15.7276 52.5001 14.8487C51.7036 12.981 53.3515 10.6876 53.5438 10.4404C53.8184 10.0696 54.3403 10.001 54.7111 10.2756C55.0819 10.5503 55.1505 11.0721 54.8759 11.4429C54.5463 11.8961 53.6674 13.3655 54.0244 14.2032C54.5463 15.4117 54.5875 17.3892 53.7635 18.4604C53.3378 18.996 52.7335 19.2569 52.0744 19.147C51.5662 19.0646 49.8634 19.147 48.133 19.4629C45.8397 19.8886 45.1393 20.4654 45.0844 20.6302C44.9882 21.0422 45.0019 21.4953 45.0157 21.976C45.0569 23.1433 45.0981 24.75 43.0519 25.6289C40.7036 26.6314 36.6524 29.5977 36.2953 30.2981C36.2679 30.3393 36.2541 30.3805 36.2404 30.408C36.8858 30.5865 38.8634 30.3668 40.3465 30.202C42.2828 29.9822 44.4664 29.7488 46.54 29.8174L47.1443 29.8449C51.374 29.996 55.0269 30.1333 56.4689 32.1795C57.3752 33.4566 57.5538 34.8711 56.9495 35.8736C56.4689 36.6564 55.3428 37.5216 52.6237 37.1782C51.3053 37.0134 50.6049 37.137 50.0007 37.2469C48.5176 37.5216 47.5837 37.549 43.8484 35.393C42.4888 34.5965 36.5837 34.5827 33.1917 37.0958C31.379 38.4417 29.5113 43.0696 29.8272 46.9972C29.9233 48.2881 30.2666 48.7962 30.4451 48.8923C30.6923 49.0159 30.9807 49.1807 31.2829 49.3455C33.535 50.5678 37.7235 52.8474 40.5937 52.0921C42.4614 51.5977 43.6149 52.2294 44.2466 52.8337C45.6062 54.1246 45.7435 56.3218 45.5238 57.393C45.3865 58.0384 46.3066 59.7001 46.801 60.5927C47.3228 61.5403 47.5975 62.0484 47.6524 62.4879C47.7073 62.8998 47.5837 63.408 47.4052 64.1083C47.1305 65.207 46.7186 66.8549 47.3091 67.7063C47.5425 68.0359 47.7622 68.4616 48.0094 68.9148C48.6549 70.1233 49.5338 71.7713 50.6873 72.0047C51.3191 72.1283 52.0744 71.8262 52.9395 71.1121C55.7548 68.7912 57.0868 66.8412 57.8834 65.6739C58.2541 65.1383 58.5151 64.7538 58.8034 64.4928C59.133 64.0671 59.2704 61.8699 59.3528 60.5515C59.394 59.9747 59.4352 59.3705 59.4764 58.8212C59.6274 57.2282 61.0831 55.3468 62.6349 53.3555C63.6374 52.0646 64.6811 50.7188 65.2579 49.5653C65.2991 49.4829 65.3403 49.4005 65.3677 49.3455C65.3128 49.3455 65.2716 49.3455 65.2304 49.3593C64.3378 49.4829 62.992 49.6751 62.0444 48.7413C61.2754 47.9722 59.9433 45.7063 59.0369 43.8799C56.9358 39.6639 57.4851 38.9498 57.746 38.6065C57.9383 38.3593 58.4876 37.8512 59.5725 38.4691C60.5475 39.0322 61.3578 39.8561 62.1405 40.6527C63.0469 41.5727 63.8983 42.4517 64.6124 42.4517C64.9558 42.4517 65.3403 42.2319 65.766 41.7787C67.5238 39.9111 67.771 38.8536 67.6474 38.5103C67.5513 38.2494 67.0432 38.0709 66.3153 38.0159C64.5026 37.8924 63.555 37.3568 63.5001 36.4367C63.4451 35.5166 64.4064 34.775 66.0544 34.4729C67.6062 34.1845 71.4239 33.8274 73.5388 36.9311C73.6624 37.1233 73.7997 37.3293 73.9508 37.5353C74.4039 38.2082 75.2417 39.4579 75.8047 40.0621C75.8184 39.8287 75.8322 39.4991 75.8047 39.0184C75.6811 36.3817 76.0107 34.7063 76.7935 33.8961C77.2192 33.4566 77.6449 33.4017 77.796 33.4017C78.2629 33.4017 78.6337 33.7725 78.6337 34.2394C78.6337 34.6377 78.359 34.9673 77.9882 35.0497C77.8646 35.1732 77.329 35.9148 77.4664 38.9498C77.5213 40.2544 77.4526 41.6414 76.4364 41.971C76.3128 42.0122 76.1755 42.0397 76.0519 42.0397C75.0082 42.0397 74.0057 40.6389 72.55 38.4691C72.4127 38.2631 72.2754 38.0709 72.1518 37.8786C70.5862 35.599 67.5787 35.8874 66.3565 36.1208C66.0956 36.1757 65.8896 36.2307 65.7111 36.2856C65.8896 36.3131 66.1231 36.3405 66.4114 36.368C68.2516 36.4916 68.9245 37.2881 69.1855 37.9198C69.6799 39.1695 68.9245 40.8586 66.9608 42.9323C66.2192 43.7151 65.4227 44.1133 64.6124 44.1271C63.1842 44.1271 62.0856 43.0147 60.9183 41.8337C60.3965 41.2981 59.8609 40.7625 59.3116 40.3231C59.5313 41.0097 59.957 42.0534 60.6848 43.4816C61.7423 45.5553 62.7722 47.1345 63.2117 47.5603C63.5687 47.9173 64.3103 47.8075 64.9832 47.7113C65.6973 47.6015 66.5213 47.4916 66.9745 48.137C67.4277 48.755 67.1255 49.5515 66.741 50.3206C66.0818 51.6252 64.997 53.0259 63.9395 54.3855C62.6074 56.1021 61.2342 57.8736 61.1243 58.986C61.0831 59.5078 61.0419 60.0709 61.0007 60.6751C60.8222 63.3805 60.6848 65.0834 59.8883 65.77C59.751 65.8799 59.5038 66.2507 59.2429 66.6352C58.3915 67.8711 56.977 69.9585 53.9695 72.4167C52.9258 73.2819 51.9096 73.7076 50.9483 73.7076H50.9895Z" fill="#ABADB0"></path><path d="M18.3887 66.2782C18.0317 66.2782 17.6884 66.0447 17.5922 65.6739C17.551 65.5229 16.576 62.0759 18.2514 57.9561C19.1853 55.6627 17.7845 53.5204 13.9805 51.4055C12.0442 50.3343 11.948 47.0659 11.8382 43.9074C11.8107 43.207 11.797 42.5616 11.7558 41.9573C11.6047 39.6502 10.1765 39.3069 10.0117 39.2657L10.1628 38.4417L10.3001 37.6177C11.2889 37.7825 13.2115 38.8812 13.4175 41.8337C13.4587 42.4654 13.4861 43.1383 13.4999 43.8387C13.5685 46.1458 13.6647 49.3181 14.777 49.9361C15.8619 50.5403 17.4412 51.5016 18.6222 52.8474C20.174 54.619 20.586 56.6102 19.7758 58.574C18.3201 62.1583 19.1578 65.1658 19.1715 65.1933C19.2951 65.6327 19.0479 66.0996 18.6085 66.2232C18.5261 66.2507 18.4574 66.2507 18.375 66.2507L18.3887 66.2782Z" fill="#ABADB0"></path><path d="M13.6519 30.6552C13.4734 30.6552 13.2948 30.6003 13.1438 30.4767C12.7867 30.1883 12.7181 29.6664 12.9927 29.3094C13.6519 28.4579 17.0714 24.187 19.1588 23.6377C22.7293 22.7039 25.0913 21.77 25.8466 20.0122C26.6431 18.1446 25.8466 16.1396 25.8466 16.1259C25.6681 15.7001 25.8741 15.2058 26.2998 15.041C26.7255 14.8624 27.2199 15.0684 27.3847 15.4941C27.4259 15.604 28.4559 18.172 27.3847 20.6714C26.2449 23.3219 22.9078 24.393 19.5845 25.2582C18.4446 25.5603 15.8217 28.403 14.3111 30.3393C14.1463 30.5453 13.8991 30.6552 13.6519 30.6552Z" fill="#ABADB0"></path><path d="M48.9577 79.0359C48.7243 79.0359 48.4908 78.9398 48.3123 78.7338C47.3647 77.6077 44.3435 77.5116 42.1462 77.4292C41.0339 77.388 40.0589 77.3605 39.3173 77.2232C37.6144 76.9073 35.2798 77.6901 34.5245 78.0059C34.0988 78.1845 33.6044 77.9922 33.4259 77.5665C33.2474 77.1408 33.4396 76.6464 33.8654 76.4679C33.9889 76.4129 37.0788 75.1083 39.6194 75.5752C40.2511 75.6851 41.1987 75.7263 42.2012 75.7538C44.9889 75.8499 48.1612 75.9597 49.5894 77.6489C49.8916 78.0059 49.8366 78.5278 49.4933 78.8299C49.3423 78.9672 49.15 79.0222 48.9577 79.0222V79.0359Z" fill="#ABADB0"></path><path d="M33.3993 18.5565C32.4792 18.5565 31.6278 18.172 31.2432 17.5128C31.0784 17.2244 30.639 16.2219 31.8749 15.1645C31.9985 15.0547 32.1221 14.9585 32.2457 14.8349C33.7426 13.5303 35.8025 11.745 38.9611 11.3743C39.6889 11.2919 39.7027 10.0147 39.7027 10.001C39.7027 9.54779 40.0734 9.16327 40.5266 9.16327C40.9798 9.16327 41.3506 9.53406 41.3643 9.98724C41.3643 10.9485 40.9249 12.8437 39.1533 13.0359C36.5166 13.3381 34.7588 14.8624 33.3444 16.0983C33.207 16.2082 33.0834 16.3181 32.9598 16.4279C32.8088 16.5653 32.7401 16.6477 32.7126 16.7026C32.85 16.8262 33.3581 17.0047 33.9211 16.7987C36.0772 16.0297 37.8075 15.192 39.222 14.2582C40.4854 13.4204 42.9299 13.0359 45.0859 12.6926C46.1022 12.5278 47.4892 12.3218 47.7776 12.1433C48.6977 11.5253 50.4829 10.2756 50.4967 10.2619C50.8675 10.001 51.3893 10.0834 51.664 10.4679C51.9249 10.8387 51.8425 11.3605 51.458 11.6352C51.3893 11.6901 49.6452 12.9123 48.6977 13.544C48.1758 13.8874 47.1871 14.0522 45.3469 14.3543C43.5616 14.6289 41.1171 15.0135 40.1558 15.6589C38.6315 16.6751 36.7776 17.5678 34.4979 18.3917C34.1409 18.5153 33.7701 18.584 33.413 18.584L33.3993 18.5565Z" fill="#ABADB0"></path><path d="M62.9656 68.1321C62.43 68.1321 61.9768 67.9124 61.661 67.5004C61.3726 67.1296 61.0979 66.4292 61.4275 65.2345C61.7159 64.2045 62.3064 62.7763 62.9381 61.6227C63.8719 59.9199 64.6547 59.1646 65.4649 59.1646C65.8495 59.1646 66.5361 59.3431 66.8245 60.4966C67.0992 61.6227 66.0967 65.207 65.259 66.6077C64.6959 67.5416 63.817 68.1184 62.9518 68.1184L62.9656 68.1321ZM65.2178 61.1558C64.4899 62.0347 63.4188 64.2869 63.0342 65.6602C62.9106 66.1134 62.9381 66.3606 62.9656 66.4567C63.1578 66.4567 63.5423 66.2232 63.8307 65.7563C64.5723 64.5066 65.1491 62.0759 65.204 61.1558H65.2178Z" fill="#ABADB0"></path></g><defs><clipPath id="clip0_1132_6796"><rect width="88" height="88" fill="white" transform="translate(0 0.0996094)"></rect></clipPath></defs></svg>